<svg xmlns="http://www.w3.org/2000/svg" version="1.1" xmlns:xlink="http://www.w3.org/1999/xlink" xmlns:svgjs="http://svgjs.dev/svgjs" width="100%" height="100%" viewBox="0 0 1000 600"><rect width="1000" height="600" x="0" y="0" fill="#f9f7f7"/><g><rect width="333.3333333333333" height="333.3333333333333" rx="13.333333333333334" ry="13.333333333333334" y="259.8051040668935" fill="#3f72af" transform="matrix(0.5261321732392941,0,0,0.526132173239294,0,75.61947394799817)" x="237.5828857421875"/><path d="M336.97438343329367 373.46022994194726L336.97438343329367 373.46022994194726L336.97438343329367 443.83976671432737Q336.97438343329367 455.43217576065723 358.7359342231123 455.43217576065723Q380.49748501293084 455.43217576065723 380.49748501293084 443.83976671432737L380.49748501293084 443.83976671432737L380.49748501293084 433.15494841183823Q380.49748501293084 429.7308560600753 386.4380789726159 429.7308560600753Q392.37867293230096 429.7308560600753 392.37867293230096 433.15494841183823L392.37867293230096 433.15494841183823L392.37867293230096 442.35461822440607Q392.37867293230096 465.8282151901061 359.2516107821127 465.8282151901061L359.2516107821127 465.8282151901061Q343.8019410744595 465.8282151901061 334.45788182537154 460.25890835290136Q325.09319551392355 454.6896015156966 325.09319551392355 442.35461822440607L325.09319551392355 442.35461822440607L325.09319551392355 374.94537843186856Q325.09319551392355 362.610395140578 334.45788182537154 357.0410883033733Q343.8019410744595 351.4717814661685 359.2516107821127 351.4717814661685L359.2516107821127 351.4717814661685Q392.37867293230096 351.4717814661685 392.37867293230096 374.94537843186856L392.37867293230096 374.94537843186856L392.37867293230096 384.1450482444364Q392.37867293230096 387.5691405961993 386.4380789726159 387.5691405961993Q380.49748501293084 387.5691405961993 380.49748501293084 384.1450482444364L380.49748501293084 384.1450482444364L380.49748501293084 373.46022994194726Q380.49748501293084 361.86782089561734 358.7359342231123 361.86782089561734Q336.97438343329367 361.86782089561734 336.97438343329367 373.46022994194726ZM451.18642772071115 453.20445302577536L451.18642772071115 453.20445302577536L464.0989687580822 453.20445302577536Q467.06926573792475 453.20445302577536 467.06926573792475 458.4024727404998Q467.06926573792475 463.6004924552242 464.0989687580822 463.6004924552242L464.0989687580822 463.6004924552242L451.18642772071115 463.6004924552242Q436.62372169453874 463.6004924552242 427.85722019153127 458.03118561801944Q419.1113457508838 452.4618787808147 419.1113457508838 440.1268954895242L419.1113457508838 440.1268954895242L419.1113457508838 395.7374572907663Q419.1113457508838 383.4024739994758 427.93972844097135 377.833167162271Q436.7681111310589 372.2638603250663 451.3308171572313 372.2638603250663Q465.8935231834037 372.2638603250663 474.6393976240512 377.833167162271Q483.40589912705866 383.4024739994758 483.40589912705866 395.7374572907663L483.40589912705866 395.7374572907663L483.40589912705866 498.0476865964536Q483.40589912705866 501.4717789482165 477.4653051673736 501.4717789482165Q471.52471120768854 501.4717789482165 471.52471120768854 498.0476865964536L471.52471120768854 498.0476865964536L471.52471120768854 394.252308800845Q471.52471120768854 382.6598997545151 451.2483089077912 382.6598997545151Q430.9925336702539 382.6598997545151 430.9925336702539 394.252308800845L430.9925336702539 394.252308800845L430.9925336702539 441.61204397944545Q430.9925336702539 453.20445302577536 451.18642772071115 453.20445302577536Z " fill="#141a46" transform="matrix(0.5261321732392941,0,0,0.526132173239294,0,75.61947394799817)"/><path d="M667.3364963813085 383.05311351964787L667.3364963813085 383.05311351964787L667.3364963813085 460.5750805029271Q667.3364963813085 473.34393907402995 691.3065066882721 473.34393907402995Q715.2765169952356 473.34393907402995 715.2765169952356 460.5750805029271L715.2765169952356 460.5750805029271L715.2765169952356 448.8059190441526Q715.2765169952356 445.0343344840048 721.8199890032029 445.0343344840048Q728.3634610111702 445.0343344840048 728.3634610111702 448.8059190441526L728.3634610111702 448.8059190441526L728.3634610111702 458.9392125009353Q728.3634610111702 484.79501508797273 691.8745164111858 484.79501508797273L691.8745164111858 484.79501508797273Q674.8569451126876 484.79501508797273 664.5646089334891 478.6605100805034Q654.2495523653739 472.52600507303407 654.2495523653739 458.9392125009353L654.2495523653739 458.9392125009353L654.2495523653739 384.6889815216397Q654.2495523653739 371.10218894954096 664.5646089334891 364.96768394207163Q674.8569451126876 358.83317893460224 691.8745164111858 358.83317893460224L691.8745164111858 358.83317893460224Q728.3634610111702 358.83317893460224 728.3634610111702 384.6889815216397L728.3634610111702 384.6889815216397L728.3634610111702 394.8222749784224Q728.3634610111702 398.5938595385702 721.8199890032029 398.5938595385702Q715.2765169952356 398.5938595385702 715.2765169952356 394.8222749784224L715.2765169952356 394.8222749784224L715.2765169952356 383.05311351964787Q715.2765169952356 370.284254948545 691.3065066882721 370.284254948545Q667.3364963813085 370.284254948545 667.3364963813085 383.05311351964787ZM802.9544978242141 414.13460555749253L802.9544978242141 414.13460555749253L802.9544978242141 405.95526554753343Q802.9544978242141 393.18640697643053 787.7318372501236 393.18640697643053Q772.5318970649494 393.18640697643053 772.5318970649494 405.95526554753343L772.5318970649494 405.95526554753343L772.5318970649494 481.0234305278249Q772.5318970649494 484.79501508797273 765.9884250569821 484.79501508797273Q759.4449530490149 484.79501508797273 759.4449530490149 481.0234305278249L759.4449530490149 481.0234305278249L759.4449530490149 407.59113354952524Q759.4449530490149 394.00434097742647 767.215326058476 387.86983596995714Q774.9856990679373 381.73533096248775 787.7318372501236 381.73533096248775L787.7318372501236 381.73533096248775Q816.0414418401488 381.73533096248775 816.0414418401488 407.25032771577696L816.0414418401488 407.25032771577696L816.0414418401488 414.13460555749253Q816.0414418401488 417.8834697287238 809.4979698321815 417.8834697287238Q802.9544978242141 417.8834697287238 802.9544978242141 414.13460555749253ZM893.4043661010121 460.5750805029271L893.4043661010121 460.5750805029271L893.4043661010121 405.95526554753343Q893.4043661010121 393.18640697643053 871.0929441849569 393.18640697643053Q848.7588018799852 393.18640697643053 848.7588018799852 405.95526554753343L848.7588018799852 405.95526554753343L848.7588018799852 460.5750805029271Q848.7588018799852 473.34393907402995 871.0929441849569 473.34393907402995Q893.4043661010121 473.34393907402995 893.4043661010121 460.5750805029271ZM906.4913101169466 407.59113354952524L906.4913101169466 407.59113354952524L906.4913101169466 458.9392125009353Q906.4913101169466 472.52600507303407 896.8578652163283 478.6605100805034Q887.201699926793 484.79501508797273 871.1611053517065 484.79501508797273Q855.1432311655367 484.79501508797273 845.3961843203354 478.6605100805034Q835.6718578640507 472.52600507303407 835.6718578640507 458.9392125009353L835.6718578640507 458.9392125009353L835.6718578640507 407.59113354952524Q835.6718578640507 394.00434097742647 845.3280231535857 387.86983596995714Q854.9614680542043 381.73533096248775 871.0020626292908 381.73533096248775Q887.0426572043773 381.73533096248775 896.7669836606619 387.86983596995714Q906.4913101169466 394.00434097742647 906.4913101169466 407.59113354952524ZM982.8999780433148 460.5750805029271L993.5331200562616 393.8452982550106Q994.0102482235093 390.23275641727867 999.6676250637311 390.23275641727867Q1005.3022815150362 390.23275641727867 1005.9611727936162 393.8452982550106L1005.9611727936162 393.8452982550106L1016.753357528979 460.5750805029271Q1017.7303342523908 467.45935834464274 1020.2750178110448 470.3902885148781Q1022.8197013696986 473.34393907402995 1028.704282099086 473.34393907402995Q1034.588862828473 473.34393907402995 1036.633697830963 470.5720516262105Q1038.6785328334527 467.77744378947443 1039.9963153906128 460.5750805029271L1039.9963153906128 460.5750805029271L1052.2653254055515 387.1427835246274Q1052.9014962952149 383.3711989644796 1059.1268828583507 383.3711989644796Q1065.352269421486 383.3711989644796 1065.352269421486 386.32484952363154L1065.352269421486 386.32484952363154L1052.7424535727991 462.39271161625135Q1050.7885001259756 474.3209157974417 1045.790014564334 479.56932563716555Q1040.8142493916087 484.79501508797273 1028.6134005434196 484.79501508797273Q1016.4352720841473 484.79501508797273 1011.2777438000896 479.56932563716555Q1006.120215516032 474.3209157974417 1004.6433902364561 462.39271161625135L1004.6433902364561 462.39271161625135L1000.5537202314767 428.51661174167066L998.9178522294849 428.51661174167066L995.0099453358378 462.39271161625135Q993.5331200562616 474.3209157974417 988.3755917722042 479.56932563716555Q983.2180634881465 484.79501508797273 971.039935028874 484.79501508797273Q958.839086180685 484.79501508797273 953.8633210079599 479.56932563716555Q948.8648354463182 474.3209157974417 946.9108819994947 462.39271161625135L946.9108819994947 462.39271161625135L934.3010661508076 386.32484952363154Q934.3010661508076 383.3711989644796 940.5264527139432 383.3711989644796Q946.7518392770787 383.3711989644796 947.3880101667423 387.1427835246274L947.3880101667423 387.1427835246274L959.657020181681 460.5750805029271Q960.9748027388409 467.77744378947443 963.0196377413308 470.5720516262105Q965.0644727438207 473.34393907402995 970.9490534732079 473.34393907402995Q976.8336342025952 473.34393907402995 979.378317761249 470.3902885148781Q981.923001319903 467.45935834464274 982.8999780433148 460.5750805029271L982.8999780433148 460.5750805029271ZM1163.9814777082431 355.2433574857869L1163.9814777082431 355.2433574857869L1163.9814777082431 458.9392125009353Q1163.9814777082431 472.52600507303407 1154.325312418708 478.6605100805034Q1144.6918675180896 484.79501508797273 1128.651272943003 484.79501508797273Q1112.6106783679165 484.79501508797273 1102.886351911632 478.6605100805034Q1093.162025455347 472.52600507303407 1093.162025455347 458.9392125009353L1093.162025455347 458.9392125009353L1093.162025455347 410.044935552513Q1093.162025455347 396.4581429804142 1102.7954703559656 390.3236379729449Q1112.4516356455008 384.18913296547555 1128.4922302205873 384.18913296547555L1128.4922302205873 384.18913296547555L1142.7151936823495 384.18913296547555Q1145.986929686333 384.18913296547555 1145.986929686333 389.9146709724469Q1145.986929686333 395.6402089794183 1142.7151936823495 395.6402089794183L1142.7151936823495 395.6402089794183L1128.4922302205873 395.6402089794183Q1106.2489694712817 395.6402089794183 1106.2489694712817 408.4090675505212L1106.2489694712817 408.4090675505212L1106.2489694712817 460.5750805029271Q1106.2489694712817 473.34393907402995 1128.560391387337 473.34393907402995Q1150.8945336923086 473.34393907402995 1150.8945336923086 460.5750805029271L1150.8945336923086 460.5750805029271L1150.8945336923086 355.2433574857869Q1150.8945336923086 351.471772925639 1157.4380057002759 351.471772925639Q1163.9814777082431 351.471772925639 1163.9814777082431 355.2433574857869ZM1235.6415843510517 473.34393907402995L1235.6415843510517 473.34393907402995Q1238.9133203550352 473.34393907402995 1238.9133203550352 479.06947708100137Q1238.9133203550352 484.79501508797273 1235.6415843510517 484.79501508797273L1235.6415843510517 484.79501508797273Q1198.3347057500714 484.79501508797273 1198.3347057500714 458.9392125009353L1198.3347057500714 458.9392125009353L1198.3347057500714 384.6889815216397Q1198.3347057500714 371.10218894954096 1208.8996865962688 364.96768394207163Q1219.4419470535493 358.83317893460224 1236.7776037968792 358.83317893460224L1236.7776037968792 358.83317893460224Q1274.0844823978596 358.83317893460224 1274.0844823978596 384.6889815216397L1274.0844823978596 384.6889815216397L1274.0844823978596 458.9392125009353Q1274.0844823978596 473.84378763019413 1260.338647103345 480.3872596381614L1260.338647103345 480.3872596381614Q1268.5179871133041 498.3818076600715 1268.5179871133041 498.69989310490325L1268.5179871133041 498.69989310490325Q1268.5179871133041 501.47178055272275 1262.9514918287487 501.47178055272275Q1257.3849965441932 501.47178055272275 1255.7491285422013 497.8819591039073L1255.7491285422013 497.8819591039073Q1236.1187125182994 454.21337160629224 1236.1187125182994 453.8725657725439L1236.1187125182994 453.8725657725439Q1236.1187125182994 451.10067832472447 1241.6852078028548 451.10067832472447Q1247.2517030874103 451.10067832472447 1248.8875710894022 454.69049977353984L1248.8875710894022 454.69049977353984L1255.4310430973694 469.57235451388215Q1260.997538381925 466.4823816212309 1260.997538381925 460.5750805029271L1260.997538381925 460.5750805029271L1260.997538381925 383.05311351964787Q1260.997538381925 370.284254948545 1236.2095940739655 370.284254948545Q1211.421649766006 370.284254948545 1211.421649766006 383.05311351964787L1211.421649766006 383.05311351964787L1211.421649766006 460.5750805029271Q1211.421649766006 473.34393907402995 1235.6415843510517 473.34393907402995ZM1379.257162692584 387.1427835246274L1379.257162692584 387.1427835246274L1379.257162692584 458.9392125009353Q1379.257162692584 472.52600507303407 1369.5328362362993 478.6605100805034Q1359.8085097800144 484.79501508797273 1343.7679152049282 484.79501508797273Q1327.7273206298414 484.79501508797273 1318.0938757292229 478.6605100805034Q1308.437710439688 472.52600507303407 1308.437710439688 458.9392125009353L1308.437710439688 458.9392125009353L1308.437710439688 387.1427835246274Q1308.437710439688 383.3711989644796 1314.981182447655 383.3711989644796Q1321.5246544556226 383.3711989644796 1321.5246544556226 387.1427835246274L1321.5246544556226 387.1427835246274L1321.5246544556226 460.5750805029271Q1321.5246544556226 473.34393907402995 1343.8587967605943 473.34393907402995Q1366.1702186766495 473.34393907402995 1366.1702186766495 460.5750805029271L1366.1702186766495 460.5750805029271L1366.1702186766495 387.1427835246274Q1366.1702186766495 383.3711989644796 1372.7136906846167 383.3711989644796Q1379.257162692584 383.3711989644796 1379.257162692584 387.1427835246274ZM1485.2704973772206 407.25032771577696L1485.2704973772206 407.25032771577696L1485.2704973772206 412.15793172175245Q1485.2704973772206 426.062809738683 1479.5449593702494 431.3112195784067Q1473.819421363278 436.5369090292139 1458.5967607891876 438.0137343087898L1458.5967607891876 438.0137343087898L1426.6973347503467 441.12642759035765L1426.6973347503467 460.5750805029271Q1426.6973347503467 473.34393907402995 1447.9636187762408 473.34393907402995L1447.9636187762408 473.34393907402995Q1472.1835533612862 473.34393907402995 1472.1835533612862 462.2109485049189L1472.1835533612862 462.2109485049189L1472.1835533612862 456.0082823306999Q1472.1835533612862 452.2366977705521 1478.7270253692536 452.2366977705521Q1485.2704973772206 452.2366977705521 1485.2704973772206 456.0082823306999L1485.2704973772206 456.0082823306999L1485.2704973772206 460.5750805029271Q1485.2704973772206 484.79501508797273 1449.2814013334007 484.79501508797273L1449.2814013334007 484.79501508797273Q1433.4225698696466 484.79501508797273 1423.5164803020293 478.5696285248372Q1413.6103907344122 472.36696235061817 1413.6103907344122 458.9392125009353L1413.6103907344122 458.9392125009353L1413.6103907344122 407.59113354952524Q1413.6103907344122 394.00434097742647 1424.084490024943 387.86983596995714Q1434.5585893154744 381.73533096248775 1451.4171178915567 381.73533096248775Q1468.2529260787228 381.73533096248775 1476.77307192243 387.6199116918751Q1485.2704973772206 393.5044924212623 1485.2704973772206 407.25032771577696ZM1426.6973347503467 405.95526554753343L1426.6973347503467 405.95526554753343L1426.6973347503467 429.67535157641487L1457.46074134336 426.5626582948471Q1466.7761007991467 425.5856815714353 1469.4798270802164 422.6320310122834Q1472.1835533612862 419.67838045313147 1472.1835533612862 412.15793172175245L1472.1835533612862 412.15793172175245L1472.1835533612862 405.95526554753343Q1472.1835533612862 393.18640697643053 1449.4404440558164 393.18640697643053Q1426.6973347503467 393.18640697643053 1426.6973347503467 405.95526554753343ZM1574.4253034857752 412.4987375555007L1574.4253034857752 412.4987375555007L1574.4253034857752 406.1143082699493Q1574.4253034857752 393.18640697643053 1553.3180621822976 393.18640697643053L1553.3180621822976 393.18640697643053Q1544.3207881713424 393.18640697643053 1538.595250164371 396.14005753558246Q1532.8697121573996 399.0709877058178 1532.8697121573996 405.45541699136925L1532.8697121573996 405.45541699136925L1532.8697121573996 409.0452384401847Q1532.8697121573996 417.8834697287238 1535.1644714379715 420.5871960097936Q1537.4592307185435 423.2909222908635 1544.9796794499225 425.08583301527113L1544.9796794499225 425.08583301527113L1559.2026429116847 428.6756544640865Q1579.4919502141665 433.92406430381027 1583.2635347743144 438.83166830978575L1583.2635347743144 438.83166830978575Q1587.8303329465416 444.8752917615889 1587.8303329465416 454.8495424959557L1587.8303329465416 454.8495424959557L1587.8303329465416 460.75684361425954Q1587.8303329465416 473.50298179644585 1577.946963767841 479.1603586366675Q1568.0408742002237 484.79501508797273 1552.3410854588856 484.79501508797273L1552.3410854588856 484.79501508797273Q1526.8260887055965 484.79501508797273 1519.941810863881 471.867113794454L1519.941810863881 471.867113794454Q1517.1699234160615 466.4823816212309 1517.1699234160615 458.7801697785194L1517.1699234160615 458.7801697785194L1517.1699234160615 453.5544803277122Q1517.1699234160615 451.4187637695562 1518.6467486956371 450.6917113242265Q1520.1235739752133 449.94193848998026 1523.7133954240287 449.94193848998026L1523.7133954240287 449.94193848998026Q1530.09782470958 449.94193848998026 1530.09782470958 454.0316084949598L1530.09782470958 454.0316084949598L1530.09782470958 461.39301450392304Q1530.09782470958 467.9364865118903 1535.8233627165514 470.64021279296014Q1541.5489007235228 473.34393907402995 1552.5001281813015 473.34393907402995L1552.5001281813015 473.34393907402995Q1574.9251520419393 473.34393907402995 1574.9251520419393 461.89286306008717L1574.9251520419393 461.89286306008717L1574.9251520419393 453.2136744939639Q1574.9251520419393 448.14702776557255 1571.0626859261256 445.3751403177531Q1567.2229401992279 442.58053248101703 1557.9075807434413 440.1267304780293L1557.9075807434413 440.1267304780293L1543.5028541703464 436.5369090292139Q1528.939084874836 432.94708758039855 1524.4404478693584 427.94860201875684Q1519.941810863881 422.95011645711514 1519.941810863881 408.568110272937L1519.941810863881 408.568110272937L1519.941810863881 406.5914364371969Q1520.2826166976292 393.5044924212623 1529.2798907085844 387.6199116918751Q1538.2771647195393 381.73533096248775 1552.9999767374657 381.73533096248775L1552.9999767374657 381.73533096248775Q1587.353204779294 381.73533096248775 1587.353204779294 407.25032771577696L1587.353204779294 407.25032771577696L1587.353204779294 412.9758657227483Q1587.353204779294 416.40664444914785 1580.8778939380763 416.40664444914785Q1574.4253034857752 416.40664444914785 1574.4253034857752 412.4987375555007ZM1642.6319110132679 365.05856549773785L1642.6319110132679 365.05856549773785L1642.6319110132679 384.18913296547555L1659.808525034182 384.18913296547555Q1663.0802610381656 384.18913296547555 1663.0802610381656 389.9146709724469Q1663.0802610381656 395.6402089794183 1659.808525034182 395.6402089794183L1659.808525034182 395.6402089794183L1642.6319110132679 395.6402089794183L1642.6319110132679 463.2106456172473Q1642.6319110132679 468.4363350680545 1645.0857130162553 472.934972073532Q1647.5395150192433 477.43360907900956 1647.5395150192433 477.5926518014254L1647.5395150192433 477.5926518014254Q1647.5395150192433 479.56932563716555 1644.449542126592 481.7732033620712Q1641.3368488450242 483.9770810869768 1639.2011322868682 483.9770810869768L1639.2011322868682 483.9770810869768Q1635.7703535604687 483.9770810869768 1632.657660278901 478.00161880192337Q1629.5449669973332 472.0261565168699 1629.5449669973332 464.8465136192391L1629.5449669973332 464.8465136192391L1629.5449669973332 395.6402089794183L1616.4580229813985 395.6402089794183Q1613.186286977415 395.6402089794183 1613.186286977415 389.9146709724469Q1613.186286977415 384.18913296547555 1616.4580229813985 384.18913296547555L1616.4580229813985 384.18913296547555L1629.5449669973332 384.18913296547555L1629.5449669973332 365.05856549773785Q1629.5449669973332 361.28698093759 1636.0884390053004 361.28698093759Q1642.6319110132679 361.28698093759 1642.6319110132679 365.05856549773785Z " fill="#112d4e" transform="matrix(0.5261321732392941,0,0,0.526132173239294,0,75.61947394799817)"/></g></svg>